<?xml version="1.0" encoding="UTF-8" standalone="no"?>
<svg
   xmlns:dc="http://purl.org/dc/elements/1.1/"
   xmlns:cc="http://creativecommons.org/ns#"
   xmlns:rdf="http://www.w3.org/1999/02/22-rdf-syntax-ns#"
   xmlns:svg="http://www.w3.org/2000/svg"
   xmlns="http://www.w3.org/2000/svg"
   xmlns:sodipodi="http://sodipodi.sourceforge.net/DTD/sodipodi-0.dtd"
   xmlns:inkscape="http://www.inkscape.org/namespaces/inkscape"
   version="1.1"
   width="24"
   height="24"
   viewBox="0 0 24.00 24.00"
   enable-background="new 0 0 24.00 24.00"
   xml:space="preserve"
   id="svg4"
   sodipodi:docname="eye-outline-white.svg"
   inkscape:version="0.92.4 (5da689c313, 2019-01-14)"><metadata
   id="metadata10"><rdf:RDF><cc:Work
       rdf:about=""><dc:format>image/svg+xml</dc:format><dc:type
         rdf:resource="http://purl.org/dc/dcmitype/StillImage" /><dc:title></dc:title></cc:Work></rdf:RDF></metadata><defs
   id="defs8" /><sodipodi:namedview
   pagecolor="#ffffff"
   bordercolor="#666666"
   borderopacity="1"
   objecttolerance="10"
   gridtolerance="10"
   guidetolerance="10"
   inkscape:pageopacity="0"
   inkscape:pageshadow="2"
   inkscape:window-width="1368"
   inkscape:window-height="692"
   id="namedview6"
   showgrid="false"
   inkscape:zoom="9.8333333"
   inkscape:cx="11.898305"
   inkscape:cy="12"
   inkscape:window-x="0"
   inkscape:window-y="30"
   inkscape:window-maximized="1"
   inkscape:current-layer="svg4" />
	<path
   d="m 12,8.99992 c 1.657,0 3,1.34298 3,2.99998 0,1.657 -1.343,3 -3,3 -1.657,0 -3,-1.343 -3,-3 0,-1.657 1.343,-2.99998 3,-2.99998 z M 12,4.5 c 5.0029,0 9.272,3.111 10.9999,7.5 C 21.272,16.389 17.0029,19.5 12,19.5 6.99796,19.5 2.72797,16.389 0.99998,12 2.72797,7.611 6.99796,4.5 12,4.5 Z M 3.18297,12 C 4.82554,15.3555 8.23896,17.5 12,17.5 15.7591,17.5 19.1732,15.3555 20.8164,12 19.1732,8.64454 15.7591,6.5 12,6.5 8.23961,6.5 4.82554,8.64454 3.18297,12 Z"
   id="path2"
   inkscape:connector-curvature="0"
   style="fill:#ffffff;fill-opacity:1;stroke-width:2;stroke-linejoin:round" />
</svg>