<?xml version="1.0" encoding="UTF-8" standalone="no"?>
<svg
   xmlns:dc="http://purl.org/dc/elements/1.1/"
   xmlns:cc="http://creativecommons.org/ns#"
   xmlns:rdf="http://www.w3.org/1999/02/22-rdf-syntax-ns#"
   xmlns:svg="http://www.w3.org/2000/svg"
   xmlns="http://www.w3.org/2000/svg"
   xmlns:sodipodi="http://sodipodi.sourceforge.net/DTD/sodipodi-0.dtd"
   xmlns:inkscape="http://www.inkscape.org/namespaces/inkscape"
   version="1.1"
   width="24"
   height="24"
   viewBox="0 0 24.00 24.00"
   enable-background="new 0 0 24.00 24.00"
   xml:space="preserve"
   id="svg4"
   sodipodi:docname="eye-off-outline-white.svg"
   inkscape:version="0.92.4 (5da689c313, 2019-01-14)"><metadata
   id="metadata10"><rdf:RDF><cc:Work
       rdf:about=""><dc:format>image/svg+xml</dc:format><dc:type
         rdf:resource="http://purl.org/dc/dcmitype/StillImage" /><dc:title></dc:title></cc:Work></rdf:RDF></metadata><defs
   id="defs8" /><sodipodi:namedview
   pagecolor="#ffffff"
   bordercolor="#666666"
   borderopacity="1"
   objecttolerance="10"
   gridtolerance="10"
   guidetolerance="10"
   inkscape:pageopacity="0"
   inkscape:pageshadow="2"
   inkscape:window-width="1368"
   inkscape:window-height="692"
   id="namedview6"
   showgrid="false"
   inkscape:zoom="9.8333333"
   inkscape:cx="1.8813559"
   inkscape:cy="12"
   inkscape:window-x="0"
   inkscape:window-y="30"
   inkscape:window-maximized="1"
   inkscape:current-layer="svg4" />
	<path
   d="M 2,5.26848 3.27711,4 20,20.7229 18.7315,22 15.6548,18.9233 C 14.5043,19.2976 13.276,19.5 12,19.5 6.998,19.5 2.72801,16.389 1.00002,12 1.69276,10.2405 2.79404,8.68635 4.18725,7.45572 Z m 10,3.73144 c 1.657,0 3,1.34298 3,2.99998 0,0.3525 -0.0607,0.6908 -0.1724,1.005 L 10.995,9.17236 C 11.3092,9.0607 11.6475,8.99992 12,8.99992 Z m 0,-4.49991 c 5.003,0 9.272,3.111 11,7.49999 -0.8204,2.0838 -2.2137,3.8796 -3.9863,5.191 L 17.5813,15.7586 C 18.9398,14.8196 20.0639,13.5368 20.8165,12 19.1733,8.64454 15.7591,6.50001 12.0001,6.50001 c -1.0932,0 -2.15706,0.18122 -3.15667,0.52074 L 7.29703,5.47434 C 8.73783,4.8476 10.328,4.50001 12,4.50001 Z M 3.18301,12 c 1.64257,3.3555 5.05599,5.5 8.81709,5.5 0.6883,0 1.365,-0.0719 2.0214,-0.21 L 11.7184,14.9869 C 10.2862,14.8536 9.1464,13.7137 9.01308,12.2816 L 5.60221,8.87069 C 4.60802,9.72469 3.77893,10.7827 3.18301,12 Z"
   id="path2"
   inkscape:connector-curvature="0"
   style="fill:#ffffff;fill-opacity:1;stroke-width:2;stroke-linejoin:round" />
</svg>